<svg xmlns="http://www.w3.org/2000/svg" viewBox="0 0 140 180"><rect x="70.8" y="0.8" width="8.4" height="8.4" rx="2" fill="#e0421b"/><rect x="70.8" y="10.8" width="8.4" height="8.4" rx="2" fill="#e0421b"/><rect x="80.8" y="10.8" width="8.4" height="8.4" rx="2" fill="#e0421b"/><rect x="70.8" y="20.8" width="8.4" height="8.4" rx="2" fill="#e0421b"/><rect x="80.8" y="20.8" width="8.4" height="8.4" rx="2" fill="#e0421b"/><rect x="90.8" y="20.8" width="8.4" height="8.4" rx="2" fill="#e0421b"/><rect x="60.8" y="30.8" width="8.4" height="8.4" rx="2" fill="#e0421b"/><rect x="70.8" y="30.8" width="8.4" height="8.4" rx="2" fill="#f97316"/><rect x="80.8" y="30.8" width="8.4" height="8.4" rx="2" fill="#e0421b"/><rect x="90.8" y="30.8" width="8.4" height="8.4" rx="2" fill="#e0421b"/><rect x="60.8" y="40.8" width="8.4" height="8.4" rx="2" fill="#e0421b"/><rect x="70.8" y="40.8" width="8.4" height="8.4" rx="2" fill="#f97316"/><rect x="80.8" y="40.8" width="8.4" height="8.4" rx="2" fill="#f97316"/><rect x="90.8" y="40.8" width="8.4" height="8.4" rx="2" fill="#e0421b"/><rect x="100.8" y="40.8" width="8.4" height="8.4" rx="2" fill="#e0421b"/><rect x="10.8" y="50.8" width="8.4" height="8.4" rx="2" fill="#e0421b"/><rect x="60.8" y="50.8" width="8.4" height="8.4" rx="2" fill="#e0421b"/><rect x="70.8" y="50.8" width="8.4" height="8.4" rx="2" fill="#f97316"/><rect x="80.8" y="50.8" width="8.4" height="8.4" rx="2" fill="#f97316"/><rect x="90.8" y="50.8" width="8.4" height="8.4" rx="2" fill="#f97316"/><rect x="100.8" y="50.8" width="8.4" height="8.4" rx="2" fill="#e0421b"/><rect x="110.8" y="50.8" width="8.4" height="8.4" rx="2" fill="#e0421b"/><rect x="10.8" y="60.8" width="8.4" height="8.4" rx="2" fill="#e0421b"/><rect x="20.8" y="60.8" width="8.4" height="8.4" rx="2" fill="#e0421b"/><rect x="50.8" y="60.8" width="8.4" height="8.4" rx="2" fill="#e0421b"/><rect x="60.8" y="60.8" width="8.4" height="8.4" rx="2" fill="#e0421b"/><rect x="70.8" y="60.8" width="8.4" height="8.4" rx="2" fill="#f97316"/><rect x="80.8" y="60.8" width="8.4" height="8.4" rx="2" fill="#f97316"/><rect x="90.8" y="60.8" width="8.4" height="8.4" rx="2" fill="#f97316"/><rect x="100.8" y="60.8" width="8.4" height="8.4" rx="2" fill="#f97316"/><rect x="110.8" y="60.8" width="8.4" height="8.4" rx="2" fill="#e0421b"/><rect x="10.8" y="70.8" width="8.4" height="8.4" rx="2" fill="#e0421b"/><rect x="20.8" y="70.8" width="8.4" height="8.4" rx="2" fill="#e0421b"/><rect x="50.8" y="70.8" width="8.4" height="8.4" rx="2" fill="#e0421b"/><rect x="60.8" y="70.8" width="8.4" height="8.4" rx="2" fill="#f97316"/><rect x="70.8" y="70.8" width="8.4" height="8.4" rx="2" fill="#f97316"/><rect x="80.8" y="70.8" width="8.4" height="8.4" rx="2" fill="#fbbf24"/><rect x="90.8" y="70.8" width="8.4" height="8.4" rx="2" fill="#f97316"/><rect x="100.8" y="70.8" width="8.4" height="8.4" rx="2" fill="#f97316"/><rect x="110.8" y="70.8" width="8.4" height="8.4" rx="2" fill="#e0421b"/><rect x="10.8" y="80.8" width="8.4" height="8.4" rx="2" fill="#e0421b"/><rect x="20.8" y="80.8" width="8.4" height="8.4" rx="2" fill="#e0421b"/><rect x="30.8" y="80.8" width="8.4" height="8.4" rx="2" fill="#e0421b"/><rect x="50.8" y="80.8" width="8.4" height="8.4" rx="2" fill="#e0421b"/><rect x="60.8" y="80.8" width="8.4" height="8.4" rx="2" fill="#f97316"/><rect x="70.8" y="80.8" width="8.4" height="8.4" rx="2" fill="#f97316"/><rect x="80.8" y="80.8" width="8.4" height="8.4" rx="2" fill="#fbbf24"/><rect x="90.8" y="80.8" width="8.4" height="8.4" rx="2" fill="#fbbf24"/><rect x="100.8" y="80.8" width="8.4" height="8.4" rx="2" fill="#f97316"/><rect x="110.8" y="80.8" width="8.4" height="8.4" rx="2" fill="#f97316"/><rect x="120.8" y="80.8" width="8.4" height="8.4" rx="2" fill="#e0421b"/><rect x="10.8" y="90.8" width="8.4" height="8.4" rx="2" fill="#e0421b"/><rect x="20.8" y="90.8" width="8.4" height="8.4" rx="2" fill="#e0421b"/><rect x="30.8" y="90.8" width="8.4" height="8.4" rx="2" fill="#e0421b"/><rect x="40.8" y="90.8" width="8.4" height="8.4" rx="2" fill="#e0421b"/><rect x="50.8" y="90.8" width="8.4" height="8.4" rx="2" fill="#f97316"/><rect x="60.8" y="90.8" width="8.4" height="8.4" rx="2" fill="#f97316"/><rect x="70.8" y="90.8" width="8.4" height="8.4" rx="2" fill="#fbbf24"/><rect x="80.8" y="90.8" width="8.4" height="8.4" rx="2" fill="#fbbf24"/><rect x="90.8" y="90.8" width="8.4" height="8.4" rx="2" fill="#fbbf24"/><rect x="100.8" y="90.8" width="8.4" height="8.4" rx="2" fill="#f97316"/><rect x="110.8" y="90.8" width="8.4" height="8.4" rx="2" fill="#f97316"/><rect x="120.8" y="90.8" width="8.4" height="8.4" rx="2" fill="#e0421b"/><rect x="10.8" y="100.8" width="8.4" height="8.4" rx="2" fill="#e0421b"/><rect x="20.8" y="100.8" width="8.4" height="8.4" rx="2" fill="#e0421b"/><rect x="30.8" y="100.8" width="8.4" height="8.4" rx="2" fill="#f97316"/><rect x="40.8" y="100.8" width="8.4" height="8.4" rx="2" fill="#f97316"/><rect x="50.8" y="100.8" width="8.4" height="8.4" rx="2" fill="#fbbf24"/><rect x="60.8" y="100.8" width="8.4" height="8.4" rx="2" fill="#fbbf24"/><rect x="70.8" y="100.8" width="8.4" height="8.4" rx="2" fill="#fff3c4"/><rect x="80.8" y="100.8" width="8.4" height="8.4" rx="2" fill="#fbbf24"/><rect x="90.8" y="100.8" width="8.4" height="8.4" rx="2" fill="#fbbf24"/><rect x="100.8" y="100.8" width="8.4" height="8.4" rx="2" fill="#f97316"/><rect x="110.8" y="100.8" width="8.4" height="8.4" rx="2" fill="#f97316"/><rect x="120.8" y="100.8" width="8.4" height="8.4" rx="2" fill="#e0421b"/><rect x="10.8" y="110.8" width="8.4" height="8.4" rx="2" fill="#e0421b"/><rect x="20.8" y="110.8" width="8.4" height="8.4" rx="2" fill="#e0421b"/><rect x="30.8" y="110.8" width="8.4" height="8.4" rx="2" fill="#f97316"/><rect x="40.8" y="110.8" width="8.4" height="8.4" rx="2" fill="#fbbf24"/><rect x="50.8" y="110.8" width="8.4" height="8.4" rx="2" fill="#fbbf24"/><rect x="60.8" y="110.8" width="8.4" height="8.4" rx="2" fill="#fff3c4"/><rect x="70.8" y="110.8" width="8.4" height="8.4" rx="2" fill="#fff3c4"/><rect x="80.8" y="110.8" width="8.4" height="8.4" rx="2" fill="#fff3c4"/><rect x="90.8" y="110.8" width="8.4" height="8.4" rx="2" fill="#fbbf24"/><rect x="100.8" y="110.8" width="8.4" height="8.4" rx="2" fill="#fbbf24"/><rect x="110.8" y="110.8" width="8.4" height="8.4" rx="2" fill="#f97316"/><rect x="120.8" y="110.8" width="8.4" height="8.4" rx="2" fill="#e0421b"/><rect x="10.8" y="120.8" width="8.4" height="8.4" rx="2" fill="#e0421b"/><rect x="20.8" y="120.8" width="8.4" height="8.4" rx="2" fill="#f97316"/><rect x="30.8" y="120.8" width="8.4" height="8.4" rx="2" fill="#f97316"/><rect x="40.8" y="120.8" width="8.4" height="8.4" rx="2" fill="#fbbf24"/><rect x="50.8" y="120.8" width="8.4" height="8.4" rx="2" fill="#fff3c4"/><rect x="60.8" y="120.8" width="8.4" height="8.4" rx="2" fill="#fff3c4"/><rect x="70.8" y="120.8" width="8.4" height="8.4" rx="2" fill="#fff3c4"/><rect x="80.8" y="120.8" width="8.4" height="8.4" rx="2" fill="#fff3c4"/><rect x="90.8" y="120.8" width="8.4" height="8.4" rx="2" fill="#fbbf24"/><rect x="100.8" y="120.8" width="8.4" height="8.4" rx="2" fill="#fbbf24"/><rect x="110.8" y="120.8" width="8.4" height="8.4" rx="2" fill="#f97316"/><rect x="120.8" y="120.8" width="8.4" height="8.4" rx="2" fill="#e0421b"/><rect x="10.8" y="130.8" width="8.4" height="8.4" rx="2" fill="#e0421b"/><rect x="20.8" y="130.8" width="8.4" height="8.4" rx="2" fill="#f97316"/><rect x="30.8" y="130.8" width="8.4" height="8.4" rx="2" fill="#f97316"/><rect x="40.8" y="130.8" width="8.4" height="8.4" rx="2" fill="#fbbf24"/><rect x="50.8" y="130.8" width="8.4" height="8.4" rx="2" fill="#fff3c4"/><rect x="60.8" y="130.8" width="8.4" height="8.4" rx="2" fill="#fff3c4"/><rect x="70.8" y="130.8" width="8.4" height="8.4" rx="2" fill="#fff3c4"/><rect x="80.8" y="130.8" width="8.4" height="8.4" rx="2" fill="#fff3c4"/><rect x="90.8" y="130.8" width="8.4" height="8.4" rx="2" fill="#fbbf24"/><rect x="100.8" y="130.8" width="8.4" height="8.4" rx="2" fill="#fbbf24"/><rect x="110.8" y="130.8" width="8.4" height="8.4" rx="2" fill="#f97316"/><rect x="120.8" y="130.8" width="8.4" height="8.4" rx="2" fill="#e0421b"/><rect x="10.8" y="140.8" width="8.4" height="8.4" rx="2" fill="#e0421b"/><rect x="20.8" y="140.8" width="8.4" height="8.4" rx="2" fill="#e0421b"/><rect x="30.8" y="140.8" width="8.4" height="8.4" rx="2" fill="#f97316"/><rect x="40.8" y="140.8" width="8.4" height="8.4" rx="2" fill="#fbbf24"/><rect x="50.8" y="140.8" width="8.4" height="8.4" rx="2" fill="#fbbf24"/><rect x="60.8" y="140.8" width="8.4" height="8.4" rx="2" fill="#fff3c4"/><rect x="70.8" y="140.8" width="8.4" height="8.4" rx="2" fill="#fff3c4"/><rect x="80.8" y="140.8" width="8.4" height="8.4" rx="2" fill="#fff3c4"/><rect x="90.8" y="140.8" width="8.4" height="8.4" rx="2" fill="#fbbf24"/><rect x="100.8" y="140.8" width="8.4" height="8.4" rx="2" fill="#f97316"/><rect x="110.8" y="140.8" width="8.4" height="8.4" rx="2" fill="#e0421b"/><rect x="120.8" y="140.8" width="8.4" height="8.4" rx="2" fill="#e0421b"/><rect x="20.8" y="150.8" width="8.4" height="8.4" rx="2" fill="#e0421b"/><rect x="30.8" y="150.8" width="8.4" height="8.4" rx="2" fill="#e0421b"/><rect x="40.8" y="150.8" width="8.4" height="8.4" rx="2" fill="#f97316"/><rect x="50.8" y="150.8" width="8.4" height="8.4" rx="2" fill="#fbbf24"/><rect x="60.8" y="150.8" width="8.4" height="8.4" rx="2" fill="#fbbf24"/><rect x="70.8" y="150.8" width="8.4" height="8.4" rx="2" fill="#fbbf24"/><rect x="80.8" y="150.8" width="8.4" height="8.4" rx="2" fill="#fbbf24"/><rect x="90.8" y="150.8" width="8.4" height="8.4" rx="2" fill="#f97316"/><rect x="100.8" y="150.8" width="8.4" height="8.4" rx="2" fill="#f97316"/><rect x="110.8" y="150.8" width="8.4" height="8.4" rx="2" fill="#e0421b"/><rect x="120.8" y="150.8" width="8.4" height="8.4" rx="2" fill="#e0421b"/><rect x="30.8" y="160.8" width="8.4" height="8.4" rx="2" fill="#e0421b"/><rect x="40.8" y="160.8" width="8.4" height="8.4" rx="2" fill="#e0421b"/><rect x="50.8" y="160.8" width="8.4" height="8.4" rx="2" fill="#f97316"/><rect x="60.8" y="160.8" width="8.4" height="8.4" rx="2" fill="#f97316"/><rect x="70.8" y="160.8" width="8.4" height="8.4" rx="2" fill="#f97316"/><rect x="80.8" y="160.8" width="8.4" height="8.4" rx="2" fill="#f97316"/><rect x="90.8" y="160.8" width="8.4" height="8.4" rx="2" fill="#e0421b"/><rect x="100.8" y="160.8" width="8.4" height="8.4" rx="2" fill="#e0421b"/><rect x="110.8" y="160.8" width="8.4" height="8.4" rx="2" fill="#e0421b"/><rect x="40.8" y="170.8" width="8.4" height="8.4" rx="2" fill="#e0421b"/><rect x="50.8" y="170.8" width="8.4" height="8.4" rx="2" fill="#e0421b"/><rect x="60.8" y="170.8" width="8.4" height="8.4" rx="2" fill="#e0421b"/><rect x="70.8" y="170.8" width="8.4" height="8.4" rx="2" fill="#e0421b"/><rect x="80.8" y="170.8" width="8.4" height="8.4" rx="2" fill="#e0421b"/><rect x="90.8" y="170.8" width="8.4" height="8.4" rx="2" fill="#e0421b"/><rect x="100.8" y="170.8" width="8.4" height="8.4" rx="2" fill="#e0421b"/></svg>